<svg width="27" height="26" viewBox="0 0 27 26" fill="none" xmlns="http://www.w3.org/2000/svg">
<path d="M26.6458 14.4694L25.1874 15.9277L22.1978 12.9382L23.6562 11.4798C23.8061 11.3329 24.0077 11.2505 24.2176 11.2505C24.4276 11.2505 24.6292 11.3329 24.7791 11.4798L26.6458 13.3465C26.952 13.6527 26.952 14.1632 26.6458 14.4694ZM12.4999 22.6215L21.3374 13.784L24.327 16.7736L15.5041 25.6257H12.4999V22.6215ZM12.4999 15.4173C6.05408 15.4173 0.833252 18.0277 0.833252 21.2507V24.1673H9.58325V21.4111L15.4166 15.5777C14.4541 15.4611 13.477 15.4173 12.4999 15.4173ZM12.4999 0.833984C10.9528 0.833984 9.46909 1.44857 8.37513 2.54253C7.28117 3.63649 6.66658 5.12022 6.66658 6.66732C6.66658 8.21441 7.28117 9.69814 8.37513 10.7921C9.46909 11.8861 10.9528 12.5007 12.4999 12.5007C14.047 12.5007 15.5307 11.8861 16.6247 10.7921C17.7187 9.69814 18.3333 8.21441 18.3333 6.66732C18.3333 5.12022 17.7187 3.63649 16.6247 2.54253C15.5307 1.44857 14.047 0.833984 12.4999 0.833984Z" fill="#0A4C65"/>
</svg>
