<svg width="55" height="55" viewBox="0 0 55 55" fill="none" xmlns="http://www.w3.org/2000/svg">
<path d="M27.56 19.8875C23.3074 19.8875 19.86 23.3349 19.86 27.5875C19.86 31.8401 23.3074 35.2875 27.56 35.2875C31.8126 35.2875 35.26 31.8401 35.26 27.5875C35.2673 25.5431 34.4585 23.5803 33.0128 22.1347C31.5672 20.689 29.6044 19.8802 27.56 19.8875Z" fill="#219EBC"/>
<path fill-rule="evenodd" clip-rule="evenodd" d="M38.1475 0.5H17C7.8873 0.5 0.5 7.8873 0.5 17V38.1475C0.5 47.2602 7.8873 54.6475 17 54.6475H38.1475C47.2602 54.6475 54.6475 47.2602 54.6475 38.1475V17C54.6475 7.8873 47.2602 0.5 38.1475 0.5ZM27.56 39.385C21.0507 39.3699 15.7776 34.0968 15.7625 27.5875C15.7514 22.7997 18.6284 18.4778 23.0496 16.6404C27.4707 14.8031 32.5635 15.813 35.949 19.1985C39.3345 22.584 40.3444 27.6768 38.5071 32.0979C36.6697 36.5191 32.3478 39.3961 27.56 39.385ZM37.8311 14.0074C38.3021 15.1299 39.4052 15.8561 40.6225 15.845C42.2628 15.845 43.5925 14.5153 43.5925 12.875C43.6036 11.6577 42.8774 10.5546 41.7549 10.0836C40.6323 9.61257 39.3364 9.86727 38.4756 10.7281C37.6148 11.5889 37.3601 12.8848 37.8311 14.0074Z" fill="#219EBC"/>
</svg>
