<svg width="50" height="50" viewBox="0 0 50 50" fill="none" xmlns="http://www.w3.org/2000/svg">
<path fill-rule="evenodd" clip-rule="evenodd" d="M41.43 38.6869C41.4343 39.2316 41.259 39.3882 40.7289 39.3758C39.2233 39.3469 37.7175 39.3242 36.2141 39.384C35.4592 39.415 35.2321 39.219 35.2425 38.4334C35.288 35.0487 35.259 31.662 35.2651 28.2756C35.2651 27.3475 35.2035 26.4276 34.863 25.5529C34.2855 24.0762 33.2893 23.0761 31.6374 22.9315C29.88 22.7768 28.6035 23.577 27.7413 25.0602C27.1762 26.0316 27.0463 27.1163 27.0483 28.2259C27.0566 31.6476 27.0298 35.0672 27.0688 38.4869C27.0793 39.2234 26.8543 39.4067 26.1489 39.382C24.6453 39.3304 23.1397 39.343 21.6343 39.3781C21.0568 39.3923 20.8813 39.219 20.8813 38.6333C20.9 31.5878 20.8978 24.5423 20.8856 17.497C20.8856 16.9917 20.9887 16.7646 21.5578 16.7772C23.1644 16.812 24.7732 16.812 26.3799 16.7772C26.9368 16.7669 27.0832 16.9688 27.0605 17.4887C27.0255 18.3323 27.0523 19.1777 27.0523 20.242C29.4347 17.2967 32.3034 16.3296 35.7108 17.0164C39.0108 17.6824 41.2815 20.6526 41.3763 24.6312C41.4877 29.3129 41.4054 34.0009 41.43 38.6869ZM13.6998 14.1557C11.7011 14.1514 10.1377 12.5674 10.142 10.5546C10.146 8.56617 11.757 6.94525 13.7203 6.94917C15.686 6.95535 17.2824 8.58267 17.2762 10.573C17.2719 12.5903 15.7046 14.1597 13.6998 14.1557ZM15.9109 39.384C14.4091 39.3242 12.9017 39.3469 11.3981 39.3758C10.8596 39.3863 10.6164 39.2871 10.6183 38.6601C10.6391 31.6187 10.6368 24.5796 10.6203 17.538C10.6183 16.9731 10.7546 16.7605 11.3566 16.7772C12.8934 16.8162 14.4339 16.8267 15.9686 16.7729C16.6758 16.7481 16.8058 17.01 16.8019 17.6494C16.775 21.135 16.7893 24.6207 16.7893 28.1083C16.7893 31.5589 16.7689 35.0117 16.8039 38.4642C16.8122 39.1654 16.6511 39.4131 15.9109 39.384ZM49.5253 8.6035C49.385 7.48335 49.3665 6.33042 48.7477 5.32825C46.7452 2.07981 43.9813 0.229541 40.0192 0.250372C29.9957 0.301935 19.9719 0.250372 9.94796 0.285435C8.44254 0.289354 6.8936 0.338854 5.52616 1.14735C2.18883 3.12323 0.229455 5.88492 0.250287 9.9336C0.297518 19.9906 0.250287 30.0471 0.28308 40.1059C0.289268 41.5229 0.310099 43.0058 1.05239 44.2825C2.80552 47.3022 5.11572 49.5441 8.91052 49.5295C9.01983 49.5295 9.1046 49.581 9.19535 49.6285H40.8032C40.9785 49.4717 41.193 49.5501 41.391 49.5253C42.5272 49.383 43.701 49.3769 44.7093 48.7251C47.5288 46.9019 49.6016 44.6063 49.5379 40.9783C49.5379 40.9144 49.583 40.8569 49.6307 40.8032V9.19543C49.4902 9.016 49.55 8.80335 49.5253 8.6035Z" fill="#219EBC"/>
</svg>
