<svg width="33" height="33" viewBox="0 0 33 33" fill="none" xmlns="http://www.w3.org/2000/svg">
<path d="M21.5 15.375V7.125L17.375 3L13.25 7.125V9.875H5V29.125H29.75V15.375H21.5ZM10.5 26.375H7.75V23.625H10.5V26.375ZM10.5 20.875H7.75V18.125H10.5V20.875ZM10.5 15.375H7.75V12.625H10.5V15.375ZM18.75 26.375H16V23.625H18.75V26.375ZM18.75 20.875H16V18.125H18.75V20.875ZM18.75 15.375H16V12.625H18.75V15.375ZM18.75 9.875H16V7.125H18.75V9.875ZM27 26.375H24.25V23.625H27V26.375ZM27 20.875H24.25V18.125H27V20.875Z" fill="#023047"/>
</svg>
