<svg width="25" height="25" viewBox="0 0 25 25" fill="none" xmlns="http://www.w3.org/2000/svg">
<path d="M12.4999 0.833008C14.047 0.833008 15.5307 1.44759 16.6247 2.54155C17.7187 3.63551 18.3333 5.11925 18.3333 6.66634C18.3333 8.21344 17.7187 9.69717 16.6247 10.7911C15.5307 11.8851 14.047 12.4997 12.4999 12.4997C10.9528 12.4997 9.46909 11.8851 8.37513 10.7911C7.28117 9.69717 6.66659 8.21344 6.66659 6.66634C6.66659 5.11925 7.28117 3.63551 8.37513 2.54155C9.46909 1.44759 10.9528 0.833008 12.4999 0.833008ZM12.4999 15.4163C18.9458 15.4163 24.1666 18.0268 24.1666 21.2497V24.1663H0.833252V21.2497C0.833252 18.0268 6.05409 15.4163 12.4999 15.4163Z" fill="#FB8500"/>
</svg>
