<svg width="50" height="50" viewBox="0 0 50 50" fill="none" xmlns="http://www.w3.org/2000/svg">
<path d="M10.205 21.6725C14.165 29.455 20.545 35.8075 28.3275 39.795L34.3775 33.745C35.12 33.0025 36.22 32.755 37.1825 33.085C40.2625 34.1025 43.59 34.6525 47 34.6525C48.5125 34.6525 49.75 35.89 49.75 37.4025V47C49.75 48.5125 48.5125 49.75 47 49.75C21.1775 49.75 0.25 28.8225 0.25 3C0.25 1.4875 1.4875 0.25 3 0.25H12.625C14.1375 0.25 15.375 1.4875 15.375 3C15.375 6.4375 15.925 9.7375 16.9425 12.8175C17.245 13.78 17.025 14.8525 16.255 15.6225L10.205 21.6725Z" fill="#219EBC"/>
</svg>
