<svg width="40" height="40" viewBox="0 0 40 40" fill="none" xmlns="http://www.w3.org/2000/svg">
<path d="M15.6805 0.402771C7.25715 0.402771 0.402771 7.25715 0.402771 15.6805C0.402771 24.104 7.25715 30.9583 15.6805 30.9583C18.7164 30.9583 21.5414 30.0581 23.9222 28.5249L33.805 38.4077C35.0761 39.6788 37.1374 39.6788 38.4077 38.4077C39.6788 37.1366 39.6788 35.0761 38.4077 33.805L28.5249 23.9222C30.0581 21.5414 30.9583 18.7164 30.9583 15.6805C30.9583 7.25715 24.104 0.402771 15.6805 0.402771ZM15.6805 6.51388C20.7344 6.51388 24.8472 10.6267 24.8472 15.6805C24.8472 20.7344 20.7344 24.8472 15.6805 24.8472C10.6267 24.8472 6.51388 20.7344 6.51388 15.6805C6.51388 10.6267 10.6267 6.51388 15.6805 6.51388Z" fill="black" fill-opacity="0.41"/>
</svg>
