<svg width="98" height="112" viewBox="0 0 98 112" fill="none" xmlns="http://www.w3.org/2000/svg">
<path d="M59.7109 0.0278012C70.2063 -0.068724 80.6251 0.0599764 91.0975 0.832179C91.0975 3.22118 91.0975 5.61018 91.0975 8.07158C93.3711 8.07158 95.6447 8.07158 97.9872 8.07158C98.0561 20.1855 97.8417 32.2753 97.4819 44.3812C97.436 46.183 97.3824 47.9767 97.3288 49.7785C97.1987 54.4439 97.0609 59.1174 96.9231 63.7828C96.7853 68.5768 96.6475 73.3629 96.5097 78.1489C96.2341 87.5038 95.9662 96.8507 95.6906 106.206C92.751 106.785 89.8114 107.356 86.8717 107.927C85.3866 108.209 83.9015 108.506 82.4164 108.796C77.5859 109.721 73.0464 110.485 68.1317 110.228C68.1317 107.573 68.1317 104.919 68.1317 102.184C64.3424 102.98 64.3424 102.98 60.4765 103.792C60.2238 96.0946 59.9712 88.3967 59.7109 80.4655C56.4268 86.8362 53.1427 93.2069 49.7591 99.7706C49.0012 99.7706 48.2434 99.7706 47.4625 99.7706C46.1994 97.3816 44.9363 94.9926 43.6349 92.5312C42.877 92.7966 42.1192 93.0621 41.3383 93.3356C38.5595 88.5576 35.7806 83.7796 32.9176 78.8568C32.6649 89.4746 32.4123 100.092 32.152 111.032C28.9751 110.404 25.8058 109.769 22.537 109.117C21.5419 108.924 20.5543 108.731 19.5362 108.53C15.2493 107.67 11.0542 106.777 6.88972 105.401C6.88972 103.278 6.88972 101.154 6.88972 98.9662C4.61611 98.7008 2.34251 98.4353 0 98.1618C0 67.9012 0 37.6405 0 6.46282C19.1381 1.63656 19.1381 1.63656 26.0278 0.832179C27.5819 3.83251 28.3244 5.393 28.3244 8.87595C29.8402 8.61051 31.3559 8.34506 32.9176 8.07158C35.6581 14.2572 37.8475 20.5957 39.9987 27.0227C40.3508 28.0764 40.7106 29.1302 41.0627 30.1839C41.9201 32.7338 42.7775 35.2837 43.6349 37.8335C47.5774 29.8943 50.9304 21.7379 54.2604 13.5011C54.7886 12.19 55.3245 10.8789 55.8527 9.56772C57.1388 6.39043 58.4249 3.20509 59.7109 0.0278012Z" fill="#FCFCFC"/>
<path d="M59.7109 0.0278012C70.2063 -0.068724 80.6251 0.0599764 91.0975 0.832179C91.0975 3.22118 91.0975 5.61018 91.0975 8.07158C93.3711 8.07158 95.6447 8.07158 97.9872 8.07158C98.0561 20.1855 97.8417 32.2753 97.4819 44.3812C97.436 46.183 97.3824 47.9767 97.3288 49.7785C97.1987 54.4439 97.0609 59.1174 96.9231 63.7828C96.7853 68.5768 96.6475 73.3629 96.5097 78.1489C96.2341 87.5038 95.9662 96.8507 95.6906 106.206C92.751 106.785 89.8114 107.356 86.8717 107.927C85.3866 108.209 83.9015 108.506 82.4164 108.796C77.5859 109.721 73.0464 110.485 68.1317 110.228C68.1317 107.573 68.1317 104.919 68.1317 102.184C64.3424 102.98 64.3424 102.98 60.4765 103.792C60.2238 96.0946 59.9712 88.3967 59.7109 80.4655C56.4268 86.8362 53.1427 93.2069 49.7591 99.7706C49.0012 99.7706 48.2434 99.7706 47.4625 99.7706C46.1994 97.3816 44.9363 94.9926 43.6349 92.5312C42.877 92.7966 42.1192 93.0621 41.3383 93.3356C38.5595 88.5576 35.7806 83.7796 32.9176 78.8568C32.6649 89.4746 32.4123 100.092 32.152 111.032C28.9751 110.404 25.8058 109.769 22.537 109.117C21.5419 108.924 20.5543 108.731 19.5362 108.53C15.2493 107.67 11.0542 106.777 6.88972 105.401C6.88972 103.278 6.88972 101.154 6.88972 98.9662C4.61611 98.7008 2.34251 98.4353 0 98.1618C0 67.9012 0 37.6405 0 6.46282C19.1381 1.63656 19.1381 1.63656 26.0278 0.832179C27.5819 3.83251 28.3244 5.393 28.3244 8.87595C29.8402 8.61051 31.3559 8.34506 32.9176 8.07158C35.6581 14.2572 37.8475 20.5957 39.9987 27.0227C40.3508 28.0764 40.7106 29.1302 41.0627 30.1839C41.9201 32.7338 42.7775 35.2837 43.6349 37.8335C47.5774 29.8943 50.9304 21.7379 54.2604 13.5011C54.7886 12.19 55.3245 10.8789 55.8527 9.56772C57.1388 6.39043 58.4249 3.20509 59.7109 0.0278012ZM60.4765 1.63656C58.2105 7.12241 55.9446 12.6083 53.6786 18.0861C52.6222 20.644 51.5657 23.1939 50.5093 25.7518C49.2921 28.6797 48.0826 31.6157 46.8731 34.5517C46.4903 35.4606 46.1152 36.3696 45.7248 37.3107C45.3727 38.1633 45.0205 39.016 44.6607 39.9008C44.3469 40.6489 44.0406 41.3969 43.7191 42.1691C42.9 44.1962 42.1115 46.2393 41.3383 48.2904C38.6667 40.7373 36.0332 33.1762 33.4381 25.599C33.2085 24.9555 32.9865 24.3039 32.7568 23.6363C31.6238 20.3303 30.4909 17.0243 29.3655 13.7183C28.9368 12.4796 28.5158 11.2408 28.0948 10.0021C27.7962 9.1414 27.7962 9.1414 27.4976 8.25658C26.4872 5.30452 26.4872 5.30452 25.2623 2.44093C16.9717 3.80838 8.9643 6.02041 0.765525 8.07158C0.765525 37.2705 0.765525 66.4694 0.765525 96.5531C3.63624 97.5586 6.13951 98.4112 9.0485 99.0225C10.0437 99.2317 10.0437 99.2317 11.0542 99.4488C11.7355 99.5856 12.4092 99.7304 13.1058 99.8671C13.7948 100.02 14.4761 100.165 15.1804 100.318C15.8387 100.454 16.5047 100.591 17.186 100.736C18.074 100.921 18.074 100.921 18.9927 101.106C20.8912 101.46 20.8912 101.46 23.7313 101.379C23.9839 88.1071 24.2365 74.8349 24.4968 61.1605C25.9972 63.8471 27.4976 66.5337 29.044 69.3008C32.9941 76.3552 37.0514 83.297 41.3383 90.1181C43.3593 88.2117 44.5229 86.2168 45.7937 83.6991C46.1994 82.9028 46.6051 82.0984 47.0262 81.278C47.4549 80.4334 47.8836 79.5807 48.3199 78.7039C49.2156 76.9585 50.1036 75.2049 50.9916 73.4594C51.4356 72.5987 51.872 71.7381 52.3236 70.8532C54.3216 66.9761 56.4039 63.1473 58.532 59.3426C59.7722 57.0742 60.4765 55.7792 60.4765 53.1167C60.9817 53.1167 61.4869 53.1167 62.0075 53.1167C62.0075 69.0434 62.0075 84.9701 62.0075 101.379C68.5374 100.8 68.5374 100.8 74.9372 99.7947C75.6645 99.6499 76.3994 99.5051 77.1572 99.3604C77.8845 99.2156 78.6194 99.0708 79.3773 98.918C80.1428 98.7651 80.9083 98.6123 81.6968 98.4595C83.557 98.0975 85.4096 97.7275 87.2698 97.3575C87.2851 96.7542 87.3081 96.1429 87.3234 95.5235C87.4918 89.7239 87.6602 83.9324 87.8287 78.1409C87.9129 75.1647 88.0047 72.1805 88.0889 69.2043C88.1885 65.7615 88.288 62.3107 88.3875 58.868C88.4105 58.3049 88.4258 57.7338 88.4411 57.1547C88.6478 50.1807 88.9004 43.2148 89.2296 36.2489C89.5817 28.7602 89.6583 21.3036 89.6123 13.7987C89.597 9.7849 89.5817 5.77106 89.5664 1.63656C79.9667 1.63656 70.367 1.63656 60.4765 1.63656Z" fill="#09364C"/>
</svg>
