<svg id="PATTERN" xmlns="http://www.w3.org/2000/svg" xmlns:xlink="http://www.w3.org/1999/xlink" viewBox="0 0 499.33 500"><defs><style>.cls-1{fill:none;}.cls-2{fill:#fff;}.cls-3{fill:url(#New_Pattern_3);}</style><pattern id="New_Pattern_3" data-name="New Pattern 3" width="100" height="100" patternTransform="translate(-53.74 47.97) rotate(-30)" patternUnits="userSpaceOnUse" viewBox="0 0 100 100"><rect class="cls-1" width="100" height="100"/><path class="cls-2" d="M29.26,102.7c1.93-4,6.4-5.69,10.66-4.7a9.26,9.26,0,0,1,6.78,10.85,9.54,9.54,0,0,1-4.9,6.25c-2.15,1.13-4.82.86-7.12.4a7.93,7.93,0,0,1-5.31-4.81,12.49,12.49,0,0,1-.05-8c.16-.41-.38-.28-.49,0a13.4,13.4,0,0,0-.09,8,8.09,8.09,0,0,0,5.88,5.36,10.82,10.82,0,0,0,7.5-.63A10.57,10.57,0,0,0,47,109.72a9.63,9.63,0,0,0-6.83-12.45,9.8,9.8,0,0,0-11.24,5.43C28.75,103,29.17,102.89,29.26,102.7Z"/><path class="cls-2" d="M30.18,107.23A10.52,10.52,0,0,1,31.6,102a6.82,6.82,0,0,1,5.24-2.8,8.24,8.24,0,0,1,8.48,7.35,7.45,7.45,0,0,1-5.9,7.74,8.87,8.87,0,0,1-5.83-1c-2.4-1.22-3.15-3.56-3.27-6.08,0-.47-.76,0-.74.35.14,2.64.89,4.78,3.2,6.22a9.08,9.08,0,0,0,6.79,1.06,8.67,8.67,0,0,0,6.35-8.54c-.18-4.82-5-8.24-9.58-7.63s-6.75,4.65-6.63,8.83C29.72,107.76,30.17,107.43,30.18,107.23Z"/><path class="cls-2" d="M28,101.14a29,29,0,0,1,2.93-2.35c1.15-.83,2.22-1.89,3.44-2.62.14-.08.52-.42.3-.62-2-1.74-4.19-2.43-6.39-.58a4.79,4.79,0,0,0-.93,6.5c.18.31.76-.19.62-.44-1.1-1.89-1.23-3.71.3-5.42a3.4,3.4,0,0,1,3.36-1.09A7.23,7.23,0,0,1,34,96.17l.21-.57c-1.36.84-2.55,2-3.86,3A9.53,9.53,0,0,0,27.62,101c-.17.28.2.26.35.13Z"/><path class="cls-2" d="M40.23,96a4.49,4.49,0,0,1,5.11-1.33c2.28.9,2.57,3.61,1.27,5.48-.29.41.22.48.44.17a6.53,6.53,0,0,0,1-3.42c.07-1.39-1.11-2.35-2.23-2.9a5,5,0,0,0-6,1.86c-.22.36.17.36.36.14Z"/><path class="cls-2" d="M39.72,96.09a15.25,15.25,0,0,0,3.38,2.09,25.28,25.28,0,0,1,3.31,2.19c.23.15.7-.29.49-.49A11.64,11.64,0,0,0,44.29,98c-.79-.41-1.59-.79-2.37-1.21a13.86,13.86,0,0,0-1.88-1c-.15-.06-.47.24-.32.37Z"/><path class="cls-2" d="M37.37,95.66a9.21,9.21,0,0,1-.3,1.65c-.13.41.5.11.58-.15a6.86,6.86,0,0,0,.24-1.76c0-.32-.5,0-.52.26Z"/><path class="cls-2" d="M37.69,95.23c-.28-.11-.32-.48,0-.24a.31.31,0,0,1,.13.24c0-.23.14-.18-.13-.2s-.51.26-.48.47c.1.63.91.3,1.17,0a.77.77,0,0,0-.29-1.24,1.25,1.25,0,0,0-1.42.65.67.67,0,0,0,0,.67c.21.35.51.22.81.12.11,0,.44-.34.21-.42Z"/><path class="cls-2" d="M28.51,95c-.06-.3-.33-.7-.66-.72s-.41.23-.42.42.34.55.52.78.61-.26.56-.48Z"/><path class="cls-2" d="M46.11,94.56h.47c.12-.29.42-.58.4-.9,0-.12-.13-.13-.23-.08a1.6,1.6,0,0,0-.67,1c-.11.37.45.09.52-.13l0-.06c0-.07,0-.17-.07-.19h0c-.17-.12-.44.12-.43.3Z"/><path class="cls-2" d="M30.72,98.88c.19.25.41.67.77.68s.69-.56.37-.62-.46-.39-.62-.59-.71.28-.52.53Z"/><path class="cls-2" d="M43.7,98.11a4.5,4.5,0,0,1-.56.74c-.34.29-.1.8.29.47A2.27,2.27,0,0,0,44.28,98c0-.37-.49,0-.58.07Z"/><path class="cls-2" d="M14.17,96.73c-.63.78-.44,1.81-.45,2.75s-.17,1.73-.19,2.6c0,1.08.07,2.17.09,3.26,0,1.85.09,3.73,0,5.58-.1,1.53-.49,3.33-.11,4.84.09.35.73-.14.69-.41a20.15,20.15,0,0,1,.12-4.32c.14-1.7.09-3.41.08-5.11s-.15-3.38-.08-5.06c0-.66.13-1.31.13-2s-.25-1.45.13-2c.22-.35-.18-.37-.37-.13Z"/><path class="cls-2" d="M13.06,97c0,1.5-.26,3-.34,4.48s.26,2.94.18,4.41c-.15,3.09,0,6.22-.41,9.3-.05.38.62,0,.65-.31.36-3.08.23-6.21.42-9.31.09-1.46-.22-2.92-.19-4.4s.21-2.9.12-4.37c0-.28-.43,0-.43.2Z"/><path class="cls-2" d="M13.23,97.08a4.52,4.52,0,0,0,.82,0c.27,0,.71-.62.3-.63a3.08,3.08,0,0,0-.91,0c-.19,0-.57.51-.21.56Z"/><path class="cls-2" d="M13.94,95.44c0,.22-.1.43-.16.64a6.5,6.5,0,0,1-.17.79c-.16.37.31.31.46.08a1.19,1.19,0,0,0,.17-.61c0-.35.11-.7.14-1.06s-.41,0-.44.16Z"/><path class="cls-2" d="M102.41,32.46c-1.14-1.68-2.69-3.06-3.74-4.78-.38-.62-1-2.74.24-2.89a2.15,2.15,0,0,1,1.34.56c1.64,1.16,2.6,3,3.92,4.43.7.79,1.44,1.53,2.09,2.36s2.22,3.77-.47,3.21c-1.25-.26-2.29-2.25-3-3.17a4.94,4.94,0,0,1-1.37-2.57c-.08-.66.38-1.34,1.05-.91a5.19,5.19,0,0,1,.77.71c.22.22.77-.28.63-.54-.65-1.15-2.49-1.67-2.94,0-.64,2.28,1.48,4.07,2.9,5.58,1.09,1.15,2.79,2.23,4,.68,1-1.25-.51-3.05-1.26-4-.94-1.15-2-2.19-2.87-3.37s-2.17-2.87-3.73-3.54c-1.4-.61-2.31.87-2.47,2.05a4.24,4.24,0,0,0,1.16,2.94c1,1.32,2.31,2.4,3.33,3.71.15.2.59-.23.44-.44Z"/><path class="cls-2" d="M111.75,16.29c-.57-1.28-2-2.42-2.89-3.46-1.19-1.3-2.41-2.54-3.53-3.91-.91-1.11-1.8-2.24-2.7-3.36A21.24,21.24,0,0,0,100,2.34c-.15-.12-.46.16-.37.32a19.62,19.62,0,0,0,2.34,3c.89,1.09,1.79,2.19,2.62,3.32A38,38,0,0,0,108,13.08a43.07,43.07,0,0,1,3.27,3.62c.15.19.56-.22.47-.41Z"/><path class="cls-2" d="M100.72,1.73c-.33-.26-.89.32-1.08.54a.36.36,0,0,0-.08.31l0,0c.06.14.24.07.33,0s.26-.27.42-.38a1.5,1.5,0,0,0,.37-.34s.08-.15,0-.19Z"/><path class="cls-2" d="M100.43,2c-.24-.4-.53-1.08-1-1.17a.38.38,0,0,0-.41.35c0,.52.6.86.94,1.23.16.18.59-.22.48-.41Z"/><path class="cls-2" d="M29.26,2.7C31.19-1.35,35.66-3,39.92-2A9.26,9.26,0,0,1,46.7,8.85a9.54,9.54,0,0,1-4.9,6.25c-2.15,1.13-4.82.86-7.12.4a7.93,7.93,0,0,1-5.31-4.81,12.49,12.49,0,0,1-.05-8c.16-.41-.38-.28-.49,0a13.4,13.4,0,0,0-.09,8.05,8.09,8.09,0,0,0,5.88,5.36,10.82,10.82,0,0,0,7.5-.63A10.57,10.57,0,0,0,47,9.72,9.63,9.63,0,0,0,40.13-2.73,9.8,9.8,0,0,0,28.89,2.7C28.75,3,29.17,2.89,29.26,2.7Z"/><path class="cls-2" d="M30.18,7.23A10.52,10.52,0,0,1,31.6,2,6.82,6.82,0,0,1,36.84-.8a8.24,8.24,0,0,1,8.48,7.35,7.45,7.45,0,0,1-5.9,7.74,8.87,8.87,0,0,1-5.83-1c-2.4-1.22-3.15-3.56-3.27-6.09,0-.46-.76,0-.74.36.14,2.63.89,4.78,3.2,6.22a9.08,9.08,0,0,0,6.79,1.06,8.67,8.67,0,0,0,6.35-8.54c-.18-4.82-5-8.24-9.58-7.63s-6.75,4.65-6.63,8.83C29.72,7.76,30.17,7.43,30.18,7.23Z"/><path class="cls-2" d="M38,7.28C37.85,6.17,38,5,37.86,3.9S37.6,1.74,37.58.65c0-.51-.82,0-.82.4a29.32,29.32,0,0,0,.29,3.24c.11,1-.09,2.36.41,3.3.13.25.53-.11.51-.31Z"/><path class="cls-2" d="M37.4,7.25c-.7,1.85-.76,4-1.42,5.84-.2.59.73.16.86-.21.32-1,.42-2,.69-3a5.8,5.8,0,0,0,.39-2.87c-.08-.26-.48.07-.52.2Z"/><path class="cls-2" d="M31.17,7.7a1.51,1.51,0,0,0,.7,0,.69.69,0,0,0,.47-.47c0-.18-.08-.35-.28-.28a1.45,1.45,0,0,1-.55.09c-.3,0-.79.63-.34.71Z"/><path class="cls-2" d="M44.2,7.33l.6-.13a.79.79,0,0,0,.54-.54c0-.21-.09-.41-.32-.33l-.62.2c-.34.1-.8.92-.2.8Z"/><path class="cls-2" d="M38.27,13a1.25,1.25,0,0,0-.05.74c0,.08.12.13.19.12h.15a.45.45,0,0,0,.39-.33c.08-.28-.06-.41,0-.68.07-.52-.57-.1-.66.16Z"/><path class="cls-2" d="M28,1.14A27.56,27.56,0,0,1,30.9-1.2c1.15-.84,2.22-1.9,3.44-2.63.14-.08.52-.42.3-.62-2-1.74-4.19-2.43-6.39-.58a4.79,4.79,0,0,0-.93,6.5c.18.31.76-.19.62-.44-1.1-1.89-1.23-3.71.3-5.42A3.4,3.4,0,0,1,31.6-5.48,7.23,7.23,0,0,1,34-3.83l.21-.57c-1.36.84-2.55,2-3.86,3A9.53,9.53,0,0,0,27.62,1c-.17.28.2.26.35.13Z"/><path class="cls-2" d="M40.23-4a4.51,4.51,0,0,1,5.11-1.33c2.28.9,2.57,3.61,1.27,5.48-.29.41.22.48.44.17a6.53,6.53,0,0,0,1-3.42c.07-1.38-1.11-2.35-2.23-2.9a5,5,0,0,0-6,1.87c-.22.35.17.35.36.13Z"/><path class="cls-2" d="M39.72-3.91A15.25,15.25,0,0,0,43.1-1.82,25.28,25.28,0,0,1,46.41.37c.23.15.7-.29.49-.49A11.64,11.64,0,0,0,44.29-2c-.79-.41-1.59-.79-2.37-1.21A13.86,13.86,0,0,0,40-4.28c-.15-.06-.47.24-.32.37Z"/><path class="cls-2" d="M37.37-4.34a9.21,9.21,0,0,1-.3,1.65c-.13.41.5.11.58-.15a6.92,6.92,0,0,0,.24-1.76c0-.32-.5,0-.52.26Z"/><path class="cls-2" d="M37.69-4.77c-.28-.11-.32-.48,0-.24a.31.31,0,0,1,.13.24c0-.22.14-.18-.13-.2s-.51.26-.48.48c.1.62.91.29,1.17-.06a.77.77,0,0,0-.29-1.24,1.25,1.25,0,0,0-1.42.65.67.67,0,0,0,0,.67c.21.35.51.22.81.12.11,0,.44-.34.21-.42Z"/><path class="cls-2" d="M28.51-5c-.06-.3-.33-.7-.66-.72s-.41.23-.42.42.34.55.52.78.61-.27.56-.48Z"/><path class="cls-2" d="M46.11-5.44h.47c.12-.29.42-.58.4-.89,0-.13-.13-.14-.23-.09a1.6,1.6,0,0,0-.67,1c-.11.37.45.09.52-.13l0-.06c0-.07,0-.17-.07-.19h0c-.17-.12-.44.12-.43.3Z"/><path class="cls-2" d="M30.72-1.12c.19.25.41.67.77.68s.69-.55.37-.62-.46-.39-.62-.59-.71.28-.52.53Z"/><path class="cls-2" d="M43.7-1.89a4.5,4.5,0,0,1-.56.74c-.34.29-.1.8.29.47A2.23,2.23,0,0,0,44.28-2c0-.37-.49,0-.58.07Z"/><path class="cls-2" d="M31.81,14.47a3.61,3.61,0,0,0-.83.91,1.72,1.72,0,0,0-.45,1.22c.09.47.76.24,1,0a2,2,0,0,0,.43-.68,4.39,4.39,0,0,1,.57-1c.3-.4-.22-.47-.46-.16a4,4,0,0,0-.64,1,1.54,1.54,0,0,0-.08.19l-.05.09c-.07.11-.08.13,0,.05-.1,0,0-.16,0-.22.21-.49.65-.83.87-1.31.11-.25-.12-.31-.3-.19Z"/><path class="cls-2" d="M44,14.06c.19.53.62.92.85,1.42a.75.75,0,0,1,.05.16c0,.12,0,.09.09-.1-.13,0-.22-.33-.27-.44a2.83,2.83,0,0,0-.85-.94c-.2-.14-.66.22-.53.45l0,0c.15.26.56-.11.55-.33v-.05l-.53.39a3.14,3.14,0,0,1,.75.75c.11.18.16.39.28.57.25.38.82,0,1-.23.51-.73-.65-1.52-1-2-.12-.17-.47.18-.41.34Z"/><path class="cls-2" d="M3.64,88.43C4.17,84.17,5,79.9,5.86,75.71c.4-1.9.94-3.75,1.22-5.68.13-.91.3-1.82.44-2.73s-.14-1.77.05-2.64l-.69.42a108.16,108.16,0,0,1,9.4,11c1.38,1.74,2.65,3.58,4.09,5.28,1.58,1.86,3.38,3.5,5,5.37.2.23.75-.3.54-.54-1.51-1.74-3.2-3.3-4.7-5s-2.72-3.55-4.06-5.33A89.09,89.09,0,0,0,7.53,64.42c-.28-.26-.68.27-.71.51-.1.86.14,1.68,0,2.54-.15,1.06-.35,2.11-.5,3.17-.27,1.92-.84,3.78-1.23,5.67-.85,4.07-1.55,8.25-2,12.38,0,.32.51,0,.54-.26Z"/><path class="cls-2" d="M3.17,88.7c2.11-.49,4.27.24,6.36-.39a20,20,0,0,1,2.55-.71c1.24-.21,2.51-.24,3.75-.45a23.43,23.43,0,0,1,6.37,0c1.18.13,2.7.48,3.76-.2.42-.26.33-.9-.21-.56s-1.7.13-2.34.07-1.38-.15-2.07-.23a23.33,23.33,0,0,0-6.3.26c-1,.16-2.09.18-3.13.35a21.67,21.67,0,0,0-2.61.77c-2,.6-4.07-.26-6.06.48-.23.08-.48.66-.07.56Z"/><path class="cls-2" d="M8.81,83.13c.33-1.34.82-2.62,1.21-3.94s.41-2.75.88-4l-.67.41c1.92,2.1,3.33,4.64,5.18,6.82L16,81.7a6.39,6.39,0,0,0-3.39,0c-1.36.33-2.52,1.16-3.95,1.22-.31,0-.89.56-.48.81a.32.32,0,0,0,.22.07c.31,0,1-.57.54-.76L8.79,83c-.19.25-.37.51-.56.77,2.58-.12,4.53-2.13,7.24-1.33.29.09.8-.38.57-.66-1.83-2.18-3.23-4.77-5.18-6.83-.24-.25-.61.22-.68.41a29,29,0,0,0-.71,3.6c-.31,1.46-.83,2.86-1.12,4.32-.06.34.41.09.46-.11Z"/><path class="cls-2" d="M23.5,86.23C24,85.86,24.76,85.5,25,85c.06-.16,0-.28-.16-.26a1.91,1.91,0,0,0-.77.49c-.27.21-.55.43-.81.65s-.09.68.25.4Z"/><path class="cls-2" d="M22.36,84.35a6.36,6.36,0,0,1,.46-.69c.14-.19.32-.3.31-.56,0,0,0-.11-.08-.12h0a.44.44,0,0,0-.43.16,5.62,5.62,0,0,0-.75,1.12c-.23.4.35.35.52.09Z"/><path class="cls-2" d="M20.33,82.06c.32-.25.93-.58.94-1a.09.09,0,0,0-.05-.08c-.4-.13-.88.5-1.13.73s-.09.64.24.38Z"/><path class="cls-2" d="M18.18,79.78c.3-.25.85-.64.8-1.08,0-.21-.26-.09-.36,0-.25.22-.43.49-.68.71s-.08.66.24.38Z"/><path class="cls-2" d="M16.71,77.59a4.61,4.61,0,0,0,.51-.48.38.38,0,0,0,.13-.36.08.08,0,0,0,0,0,.09.09,0,0,0-.13,0c-.3.08-.49.37-.72.57s-.07.61.23.36Z"/><path class="cls-2" d="M14.55,75c.31-.35.84-.73,1-1.19,0-.07,0-.17-.1-.16-.54.06-.92.73-1.24,1.12s.14.5.37.23Z"/><path class="cls-2" d="M12.9,72.9c.4-.34,1.26-.89,1.26-1.48,0-.1-.12-.11-.19-.07a2.21,2.21,0,0,0-.57.53,9.35,9.35,0,0,1-.73.67c-.25.22-.07.61.23.35Z"/><path class="cls-2" d="M11.1,71.09c.18-.29.37-.57.56-.86a1.06,1.06,0,0,0,.27-.62c0-.11-.12-.13-.2-.08a3.8,3.8,0,0,0-1.06,1.4c-.24.41.24.48.43.16Z"/><path class="cls-2" d="M9.32,69.3c.34-.28.85-.57,1-1,.05-.12,0-.24-.14-.21-.42.07-.8.56-1.11.83s-.08.62.23.37Z"/><path class="cls-2" d="M8.77,67.66c.2-.35.48-.65.66-1,.09-.17,0-.28-.21-.21a2.29,2.29,0,0,0-1,1.21c-.22.44.38.26.52,0Z"/><path class="cls-2" d="M2.41,32.46C1.27,30.78-.28,29.4-1.33,27.68c-.38-.62-1-2.74.24-2.89a2.15,2.15,0,0,1,1.34.56c1.64,1.16,2.6,3,3.92,4.43.7.79,1.44,1.53,2.09,2.36s2.22,3.77-.47,3.21c-1.25-.26-2.29-2.25-3-3.17a4.94,4.94,0,0,1-1.37-2.57c-.08-.66.38-1.34,1.05-.91a5.19,5.19,0,0,1,.77.71c.22.22.77-.28.63-.54-.65-1.15-2.49-1.67-2.94,0-.64,2.28,1.48,4.07,2.9,5.58,1.09,1.15,2.79,2.23,4,.68,1-1.25-.51-3.05-1.26-4-.94-1.15-2-2.19-2.87-3.37S1.51,24.87,0,24.2c-1.4-.61-2.31.87-2.47,2.05a4.24,4.24,0,0,0,1.16,2.94C-.36,30.51,1,31.59,2,32.9c.15.2.59-.23.44-.44Z"/><path class="cls-2" d="M14.17-3.27c-.63.78-.44,1.81-.45,2.75s-.17,1.73-.19,2.6c0,1.08.07,2.17.09,3.26,0,1.85.09,3.73,0,5.58-.1,1.53-.49,3.34-.11,4.84.09.35.73-.14.69-.41A20.15,20.15,0,0,1,14.28,11c.14-1.7.09-3.41.08-5.11s-.15-3.38-.08-5.06c0-.66.13-1.31.13-2s-.25-1.45.13-2c.22-.35-.18-.37-.37-.13Z"/><path class="cls-2" d="M13.06-3c0,1.5-.26,3-.34,4.48s.26,2.93.18,4.41c-.15,3.09,0,6.22-.41,9.3-.05.38.62,0,.65-.31.36-3.08.23-6.21.42-9.31.09-1.46-.22-2.92-.19-4.4s.21-2.9.12-4.37c0-.28-.43,0-.43.2Z"/><path class="cls-2" d="M13.8,15.4a2.5,2.5,0,0,1-1.26-.83c-.14-.17-.43.09-.51.19-.32.44-.35,1.32-.75,1.64-.14.1-.31.3-.24.48.61,1.77,1.09,3.58,1.75,5.33a.22.22,0,0,0,.27.1c.73-.26,3.1-.61,3-1.8-.11-1.77-1.75-3.12-1.84-5,0-.43-.7,0-.69.33a7.82,7.82,0,0,0,1.06,3.2c.23.47.45.95.64,1.44s-1.72.95-2.11,1.1l.35.07c-.66-1.74-1.07-3.57-1.79-5.29l-.24.48c.7-.55.55-1.28,1-2l-.51.18a1.63,1.63,0,0,0,1.64.64c.09,0,.37-.31.17-.36Z"/><path class="cls-2" d="M11.75,16.29C11.18,15,9.8,13.87,8.86,12.83c-1.19-1.3-2.41-2.54-3.53-3.91-.91-1.11-1.8-2.24-2.7-3.36A21.24,21.24,0,0,0,0,2.34c-.15-.12-.46.16-.37.32A19.62,19.62,0,0,0,2,5.65C2.9,6.74,3.8,7.84,4.63,9A38,38,0,0,0,8,13.08a43.07,43.07,0,0,1,3.27,3.62c.15.19.56-.22.47-.41Z"/><path class="cls-2" d="M11.58,15.71l0,.08.49-.35c-.46-1.14-1.73-2-2.56-2.87C8.46,11.41,7.43,10.19,6.43,9S4.49,6.58,3.65,5.3,1.63,3.05.81,1.78C.66,1.55.12,2,.3,2.3c.78,1.12,1.81,2,2.63,3.14S4.85,7.8,5.77,9c.44.58.74,1.23,1.19,1.8s1.14,1.34,1.72,2c.94,1.06,2,2,2.94,3,.16.18.58-.21.47-.39l0-.06c-.15-.25-.51.13-.47.33Z"/><path class="cls-2" d="M13.23-2.92a4.52,4.52,0,0,0,.82,0c.27,0,.71-.62.3-.63a3.08,3.08,0,0,0-.91,0c-.19,0-.57.51-.21.56Z"/><path class="cls-2" d="M.72,1.73c-.33-.26-.89.32-1.08.54a.36.36,0,0,0-.08.31l0,0c.06.14.24.07.33,0s.26-.27.42-.38A1.5,1.5,0,0,0,.7,1.92s.08-.15,0-.19Z"/><path class="cls-2" d="M.43,2C.19,1.61-.1.93-.58.84A.38.38,0,0,0-1,1.19c0,.52.6.86.94,1.23C.11,2.6.54,2.2.43,2Z"/><path class="cls-2" d="M13.94-4.56c0,.22-.1.43-.16.64a6.5,6.5,0,0,1-.17.79c-.16.37.31.31.46.08a1.19,1.19,0,0,0,.17-.61c0-.35.11-.7.14-1.06s-.41,0-.44.16Z"/><path class="cls-2" d="M15.2,22.24c0-.38-.09-.88-.44-1.08-.2-.1-.46.21-.5.36a1.35,1.35,0,0,0,.33,1.16c.18.24.63-.24.61-.44Z"/><path class="cls-2" d="M15.42,22a2.38,2.38,0,0,0-1,.31.5.5,0,0,0-.24.39,3.54,3.54,0,0,0,.37,1,10,10,0,0,1,.31,1.34c0,.11.14.11.23.1a2.7,2.7,0,0,0,.56-.14l.18-.11c.12-.09.12-.1,0,0,.22,0,.55-.28.52-.53a3.73,3.73,0,0,0-.29-.83c-.08-.22-.44-.82-.38-1.06.12-.51-.63-.16-.71.17-.16.71.61,1.38.68,2.06l.52-.52a.78.78,0,0,0-.45.15,2.81,2.81,0,0,1-.56.25l.32.06c-.12-.35-.13-.73-.23-1.08a7,7,0,0,1-.42-1.13l-.4.47a3.9,3.9,0,0,0,.93-.36c.18-.09.45-.57.06-.5Z"/><path class="cls-2" d="M66.67,82c-.44,1.68-1,3.33-1.5,5-.26.82-.51,1.63-.74,2.46a23.53,23.53,0,0,0-.91,3c0,.08,0,.16.08.2,1.42.6,3.17.5,4.68.82,2,.43,4,1.15,5.92,1.74,1.65.5,3.28,1.13,4.91,1.72s3.58.59,5.31,1.17c.23.08.52-.22.52-.44a6.83,6.83,0,0,1,.53-2.17,23.73,23.73,0,0,0,.62-2.75c.28-1.47.63-3,.83-4.46,0-.27-.32,0-.34.12A20.18,20.18,0,0,1,86,90.56c-.23.9-.32,1.84-.53,2.74-.35,1.47-1.15,3.11-1.13,4.62l.51-.44c-1.26-.33-2.57-.49-3.85-.75a30.74,30.74,0,0,1-3.59-1.18c-2.74-.88-5.43-1.94-8.23-2.62a24.53,24.53,0,0,0-3.61-.52c-.84-.08-1.58.1-1.24-1,.22-.72.55-1.41.77-2.13.77-2.46,1.57-4.93,2.18-7.43.11-.44-.52-.12-.6.15Z"/><path class="cls-2" d="M81.91,89.31c1.65.52,3.56,1,4.78-.61a10.73,10.73,0,0,0,1.63-4.9c.07-.47-.6-.14-.64.16a13.54,13.54,0,0,1-.8,3.38A2.76,2.76,0,0,1,85.22,89a5.36,5.36,0,0,1-2.84-.37c-.3-.09-.82.54-.47.66Z"/><path class="cls-2" d="M71.89,86.44c2.81.84,5.62,1.64,8.42,2.48.35.1.84-.6.4-.67a75.83,75.83,0,0,1-8.42-2.37c-.26-.07-.69.47-.4.56Z"/><path class="cls-2" d="M67.58,78.42c-.54,1.26-1.21,2.77-.91,4.18.38,1.79,1.86,2.64,3.45,3.27.26.11.73-.47.42-.59-1.39-.55-2.7-1.24-3.2-2.74-.45-1.33.27-2.94.7-4.18.11-.32-.38-.12-.46.06Z"/><path class="cls-2" d="M67.62,78.32a6.11,6.11,0,0,0,2,.87,9.1,9.1,0,0,0,1.2.2,16.34,16.34,0,0,1,1.62.56c.92.27,1.81.53,2.7.85a11.48,11.48,0,0,0,2.78.81,27.21,27.21,0,0,1,5.82,1.67,8.59,8.59,0,0,0,1.73.36c.53,0,1.82,0,2.1.54s1-.25.84-.6c-.48-.79-2-.68-2.8-.75-2.08-.17-3.94-1.42-6-1.81a12,12,0,0,1-2.84-.64,25.43,25.43,0,0,0-3-.93c-1-.27-2-.69-3-.86a18.71,18.71,0,0,0-3-.65c-.12,0-.44.26-.27.38Z"/><path class="cls-2" d="M70.38,84.53A4,4,0,0,0,70,85.84,7.9,7.9,0,0,0,69.73,87c0,.28.35.4.56.44.44.11.89.16,1.34.28.29.08.64-.26.64-.55,0-.48.24-.92.26-1.39a4.7,4.7,0,0,0,.11-1.11c-.1-.49-1.48-.53-1.82-.54s-.94.84-.41.85c.31,0,.62.08.93.12s.54,0,.45.32-.05.66-.13,1a4.33,4.33,0,0,0-.15,1.13l.65-.55a7,7,0,0,0-1-.22c-.19,0-.71,0-.61-.33a10.71,10.71,0,0,0,.4-2.09c0-.39-.51,0-.58.15Z"/><path class="cls-2" d="M80.59,87.26c-.3.92-.48,1.86-.7,2.8-.1.43.44.19.56,0-.16.24-.13.15.11.26l.31.17c.21.14.5.11.71.26s.76-.23.75-.53a6.71,6.71,0,0,1,.23-1.4c.08-.48.12-1,.2-1.46,0-.1,0-.26-.11-.3-.46-.11-.9-.2-1.36-.34s-1,.72-.6.83.93.2,1.4.3l-.12-.3c-.08.46-.16.9-.21,1.36a8.09,8.09,0,0,0-.23,1.69L82.2,90a2,2,0,0,0-.64-.17,5.12,5.12,0,0,1-.65-.25.77.77,0,0,0-.94.28h.57c.28-.92.44-1.85.64-2.79.1-.45-.51-.09-.59.15Z"/><path class="cls-2" d="M70.29,89c-.83.65-.38,2-.91,2.69-.06.08-.12.26,0,.31.78.34,1.71.44,2.53.71s1.75.46,2.6.77c1.64.61,3.35,1,5,1.56.25.09.51-.21.57-.41.29-.94.26-1.91.49-2.84.06-.24-.2-.24-.34-.13l-.06,0c-.35.27-.14.69.22.35l.06-.06H80a13.81,13.81,0,0,1-.6,2.81l.57-.42c-.89-.24-1.66-.7-2.54-1a18.88,18.88,0,0,1-2.44-.6A26.32,26.32,0,0,0,72.37,92a12.92,12.92,0,0,0-2.68-.57,2.77,2.77,0,0,1,.1.26c.4-.72.35-1.84.81-2.45.21-.27,0-.52-.31-.31Z"/><path class="cls-2" d="M70.16,89.38c1.65.42,3.19,1.07,4.89,1.39.2,0,.34.25.56.27.47,0,.92.21,1.39.29a15.88,15.88,0,0,1,3.13.84c.33.13.8-.38.7-.7l0-.09c-.14-.42-.82.2-.8.48V92l.71-.61c-1.6-.5-3.65-.54-5.12-1.34a5.83,5.83,0,0,0-1.38-.28,12.27,12.27,0,0,1-1.6-.47,4.13,4.13,0,0,0-2.19-.43c-.15,0-.55.47-.26.54Z"/><path class="cls-2" d="M72,79.45l0,.11c-.09.51.6.13.68-.16.56-2.16.54-5.07-1.14-6.73-1.86-1.84-4.76-1-6.22.78-1.8,2.23-2.3,5.74-2.52,8.48-.19,2.35-.45,6.26,1.49,8,.33.3,1.08-.47.76-.77-1.52-1.39-1.39-4-1.41-5.93a21.23,21.23,0,0,1,1.4-7.8,4.14,4.14,0,0,1,2.51-2.82,3.8,3.8,0,0,1,3.66,1.26c1.39,1.58.7,3.88.78,5.74l.68-.41,0-.09c-.1-.32-.59.13-.62.3Z"/><path class="cls-2" d="M71.63,79c.56-2.49-.11-5.41-2.36-6.82s-4.56.18-5.75,2c-1.51,2.28-1.83,5.54-2,8.2A13.45,13.45,0,0,0,64,90.77c.23.31.93-.36.7-.7a13.27,13.27,0,0,1-2.39-6.19,19,19,0,0,1,1-7.24c.72-2.47,2.56-5,5.36-3.57,2.31,1.15,2.3,4,2.46,6.13,0,.35.51,0,.55-.21Z"/><path class="cls-2" d="M81.18,81.89c1.32-2.09,2.58-4.21,5.32-4.35s4.44,2.33,4.8,4.81-.73,5.21-2.06,7.39a15.15,15.15,0,0,1-4,4.84c-.48.32-.36,1.09.25.67,2.13-1.47,3.61-3.89,4.86-6.11a11.34,11.34,0,0,0,1.47-8.35A5.09,5.09,0,0,0,86,76.88c-2.64.34-4.17,2.78-5.26,4.94-.16.32.27.26.4.07Z"/><path class="cls-2" d="M82,82.32c1.46-1.65,2.86-3.53,5.23-3.76s4.41,2.23,5.06,4.33c.79,2.54-1.14,5.63-2.45,7.68S87.09,94.73,85,95.72c-.48.22-.75,1.22,0,.9,2.58-1.1,4.4-3.87,5.85-6.15s3.11-5.38,2.43-8.25a5.85,5.85,0,0,0-5.91-4.54c-2.55.26-4.32,2.47-5.69,4.39-.25.35.14.53.38.25Z"/><path class="cls-2" d="M7.74,49.7a12.46,12.46,0,0,1,7.55,1.06,16.32,16.32,0,0,1,5.45,4.53c.2.22.63-.16.69-.34A70.15,70.15,0,0,1,24.52,48c.56-1.14,1.14-2.27,1.6-3.46.21-.51.55-1.06.27-1.6-.19-.35-.84.2-.69.49.27.57-.58,1.95-.79,2.41-.46,1-1,2-1.49,3-1,2-1.91,4-2.69,6.07l.7-.34a17.43,17.43,0,0,0-5.68-4.48,12.36,12.36,0,0,0-7.9-.87c-.21,0-.45.52-.11.45Z"/><path class="cls-2" d="M7.69,49.18l-.09,0,.22.23a5.37,5.37,0,0,1,1.34-1.39c.67-.61,1.37-1.18,2.05-1.76,1.43-1.23,2.66-2.68,4-4a4.52,4.52,0,0,1,2.8-1.6c.91-.09,1.82-.14,2.73-.24,1.7-.19,3.83,1.71,4.55,3.21.21.43,1-.25.85-.61a6.37,6.37,0,0,0-1.74-1.95c-.69-.55-1.51-1.4-2.44-1.43-1.19,0-2.4.18-3.59.27a4.37,4.37,0,0,0-2.28.78A19.34,19.34,0,0,0,14,42.85c-.94.92-1.81,1.89-2.77,2.79s-2,1.76-3,2.71a2.88,2.88,0,0,0-.85,1.14c0,.23.19.21.32.13l.08-.06c.21-.12.26-.51-.06-.38Z"/><path class="cls-2" d="M26.17,43.73c1.57-.94,3.61-.3,5.2.28a7.9,7.9,0,0,1,2.57,1.5c.72.64.94,1.6,1.55,2.31.28.33,1.08-.44.76-.76-.77-.76-1-1.77-1.89-2.5A9.06,9.06,0,0,0,31.16,43c-1.58-.5-3.68-.82-5.07.3-.17.14-.26.62.08.42Z"/><path class="cls-2" d="M36.16,47.33c-.4,0-.55.47-.6.82-.19,1.53-.35,3-.68,4.53a8.12,8.12,0,0,0-.25,2.3,8.33,8.33,0,0,1-.48,2.63c-.19.77-.77,1.75-.52,2.55.11.34.75-.16.66-.47-.2-.62.33-1.64.51-2.24a8.57,8.57,0,0,0,.47-3.22c-.09-1.41.53-3,.75-4.4,0-.27,0-2.13,0-2.15s.33-.37.09-.35Z"/><path class="cls-2" d="M21.09,55.12c2.09-1.12,4.85.53,6.76,1.35.56.25,1.12.5,1.68.77a5.85,5.85,0,0,1,1.41,1.31c.8.76,1.93,1,2.66,1.74.29.3,1-.42.72-.72a2.85,2.85,0,0,0-1.19-.74,5.11,5.11,0,0,1-2-1.55c-.87-1.06-2.42-1.43-3.64-1.93-1.71-.69-4.94-2.24-6.55-.51-.12.12-.13.41.11.28Z"/><path class="cls-2" d="M8.49,50.47a25.17,25.17,0,0,1,6.85,1.85c1,.49,1.81,1.14,2.75,1.64A12.8,12.8,0,0,1,21,55.69c.3.3,1-.44.73-.73a14.34,14.34,0,0,0-2.39-1.42,33.31,33.31,0,0,0-3-1.79A15.29,15.29,0,0,0,8.79,50c-.17,0-.57.44-.3.49Z"/><path class="cls-2" d="M20.55,55.26a10.91,10.91,0,0,0,2.05.48c1.1.34,2.23.62,3.35.92a11,11,0,0,1,2.42,1.59c.88.56,1.92,1.12,2.74,1.76.32.25,1-.41.71-.71a10.93,10.93,0,0,0-2.13-1.41c-1-.59-1.82-1.4-2.8-1.91a15.36,15.36,0,0,0-3.31-.87,19,19,0,0,0-2.71-.38c-.21,0-.58.39-.32.53Z"/><path class="cls-2" d="M16.54,42.45c2.21-.44,4.74,1,6.53,2.12.19.12.55-.29.4-.47a7.2,7.2,0,0,0-3.28-1.8A6,6,0,0,0,16.66,42c-.21.06-.48.54-.12.48Z"/><path class="cls-2" d="M16.21,43.5A12.44,12.44,0,0,1,21.93,46c.22.15.64-.24.46-.46A8.36,8.36,0,0,0,16.44,43c-.21,0-.53.43-.23.47Z"/><path class="cls-2" d="M14.57,45a26.56,26.56,0,0,0,3.37,1.1,24.93,24.93,0,0,1,3.24,2c.17.11.44-.23.39-.39-.34-1-1.95-1.51-2.79-2a11.09,11.09,0,0,0-3.93-1.11c-.19,0-.51.35-.28.48Z"/><path class="cls-2" d="M13,46.56a11.72,11.72,0,0,1,1.74.65,3.47,3.47,0,0,0,1.43.57c.11,0,.27-.14.25-.26-.07-.52-.66-.58-1.08-.78a11.71,11.71,0,0,0-2-.66c-.21,0-.59.39-.34.48Z"/><path class="cls-2" d="M27.19,44.63a7.34,7.34,0,0,1,3.56,1.08c.42.27.76.63,1.18.89a3.88,3.88,0,0,1,1.64,1.33c.16.28.62-.11.58-.35a1.57,1.57,0,0,0-.75-1.18c-.64-.46-1.36-.85-2-1.32a5.79,5.79,0,0,0-3.94-1c-.2,0-.6.5-.25.53Z"/><path class="cls-2" d="M26.66,46.7a9.81,9.81,0,0,1,4,1.19,3.82,3.82,0,0,1,1.45,1,2.07,2.07,0,0,0,1,.84c.21.07.64-.32.43-.51a8.54,8.54,0,0,0-2.4-2,9.46,9.46,0,0,0-4.22-1.07c-.23,0-.6.54-.26.54Z"/><path class="cls-2" d="M26,48.36a18.81,18.81,0,0,1-1.31,2.89,7.37,7.37,0,0,0-1,1.85c-.09.34.37.17.47,0a18.56,18.56,0,0,1,2.57.87c.66.19,1.31,1,2,.85a.29.29,0,0,0,.2-.2c.26-1,.69-2,.95-3.06,0-.11-.13,0-.15,0a7.51,7.51,0,0,0-1.06,2.67c.16.3.08.3-.25,0a4,4,0,0,0-.54-.38,5.45,5.45,0,0,0-1.13-.57c-.79-.28-2.38-1.36-3-.33h.46a8.94,8.94,0,0,1,1.2-1.92,17.3,17.3,0,0,0,1.09-2.68c.16-.4-.36-.26-.47,0Z"/><path class="cls-2" d="M30.14,51.07c.14-.31.28-1.17.57-1.28.11,0,.45-.4.25-.53A6.84,6.84,0,0,0,29,48.57a16.74,16.74,0,0,1-2.37-1c-.25-.12-.69.35-.5.58a5.14,5.14,0,0,0,2.65,1.24,7.12,7.12,0,0,1,1.54.51c-.16.4-.29.82-.47,1.21-.09.21.2.15.26,0Z"/><path class="cls-2" d="M43,37.77a11.61,11.61,0,0,1-3.19-3.68c-1-2.06.71-4,2.28-5.18a8,8,0,0,1,10.13.3A5.49,5.49,0,0,1,53.93,34c-.29,1.94-2.13,3-3.86,3.49-1.5.4-3,.11-4.4.91a6.39,6.39,0,0,0-2.46,3.14l.85-.32c-.42-1.14-.33-2.45-.83-3.56-.21-.46-1.06.24-.88.63.5,1.11.39,2.43.82,3.58.16.43.76-.12.85-.32.59-1.24,1.16-2.31,2.56-2.76,1-.34,2.21-.22,3.28-.47a7.18,7.18,0,0,0,3.88-2.37c2.54-3,.33-7.08-2.62-8.68-3.45-1.86-7.81-.45-10.49,2.1-1.13,1.08-2.18,2.73-1.88,4.36.38,2.06,2.08,3.43,3.71,4.57.25.17.75-.32.52-.52Z"/><path class="cls-2" d="M46.25,35.43c-.61-.84-1.47-1.49-2.16-2.27a1.28,1.28,0,0,1,.83-2.22,1.74,1.74,0,0,1,1.62,1.32c.09.38.63-.17.68-.33a1.29,1.29,0,0,1,2-.84c1.17.84-.27,1.87-.75,2.28-.81.7-1.62,1.4-2.48,2.05-.43.32-.31,1,.23.62,1.13-.9,2.2-1.87,3.27-2.83a1.85,1.85,0,0,0,.64-2.44,1.91,1.91,0,0,0-2.21-.66,2.82,2.82,0,0,0-1.4,2l.69-.25c-.32-1.86-2.62-2.05-3.8-.9-1.88,1.84.86,4.16,2.34,5,.24.14.63-.34.48-.56Z"/><path class="cls-2" d="M51.15,77c-.14,1.62-.23,3.23-.26,4.86a24.77,24.77,0,0,1-.15,4.72l.75-.36c-.6-1.3-1-2.9-2.58-3.06C46.45,82.94,44,83,41.51,83c-.39,0-.93.85-.41.85,1.93,0,3.86,0,5.79,0,.76,0,2-.11,2.61.45a8.38,8.38,0,0,1,1.24,2.44c.17.39.69-.15.75-.37a16.87,16.87,0,0,0,.18-4c0-1.92,0-3.83.15-5.75,0-.41-.65,0-.67.32Z"/><path class="cls-2" d="M51.55,76.35a28.93,28.93,0,0,0-5.1-.29c-.94,0-1.87,0-2.8-.08a4.7,4.7,0,0,0-1.58-.13c-1,.27-1.11,1.05-1.16,2-.12,2,.52,3.74,0,5.71-.14.47.57.12.66-.17a10.26,10.26,0,0,0,.34-3.4c0-.69-.16-1.38-.22-2.07-.08-.89,0-1.43.91-1.3,2.86.36,5.81.15,8.69.27.19,0,.56-.45.3-.5Z"/><path class="cls-2" d="M49.3,59.89a51.14,51.14,0,0,1,3.8-7.4c.79-1.21,2.66-3.05,3.85-1.17.49.77.08,2-.17,2.74a24.81,24.81,0,0,1-2.61,5.23,7.57,7.57,0,0,1-2.68,2.85c-.76.42-1.84.55-2.22-.42a3.46,3.46,0,0,1,.1-1.91c.09-.44-.51-.16-.6.07-.32.78-.73,2.74.35,3.17a3.63,3.63,0,0,0,3.46-1c2.21-1.9,3.82-5.12,4.83-7.81A5.13,5.13,0,0,0,57.77,51a2.14,2.14,0,0,0-2.92-1c-1.42.65-2.31,2.33-3.07,3.6a46.5,46.5,0,0,0-3,6.3c-.17.42.38.27.5,0Z"/><path class="cls-2" d="M50.94,50.1c-1.09-.39-2.23-.72-3.26,0s-.67,2.49-.29,3.54a20.19,20.19,0,0,0,7.23,9.53,2.58,2.58,0,0,0,3.38.09c1-.93.44-2.75,0-3.79-.82-1.92-2.33-3.47-3.38-5.26A11.2,11.2,0,0,0,51,50c-.27-.16-.82.48-.48.67,2.35,1.33,3.5,4.17,5,6.29a14.77,14.77,0,0,1,2.11,3.65c.3.82.64,2.52-.89,2.57a3.83,3.83,0,0,1-2.12-1,20.61,20.61,0,0,1-5.43-6.49,16.84,16.84,0,0,1-1.39-3.2c-.3-1-.3-2.1,1.07-2.1a11.31,11.31,0,0,1,1.74.2c.18,0,.53-.39.29-.48Z"/><path class="cls-2" d="M45.92,56.09c.11-.86,2.42-1.21,3-1.36A32.93,32.93,0,0,1,53.58,54c2.06-.2,5.58-.69,7.09,1,1.3,1.49-.56,2.68-1.81,3a15.74,15.74,0,0,1-4,.4,31.82,31.82,0,0,1-5.52-.38c-1.2-.19-3.45-.27-3.22-2,.08-.59-.74-.18-.79.2-.23,1.58.86,2.18,2.29,2.42a41.14,41.14,0,0,0,7.76.56c2.11-.05,7.18-.62,6.44-3.9s-6.42-2.3-8.75-2a22.33,22.33,0,0,0-5.55,1.18c-.76.3-2,.81-2,1.8,0,.31.46,0,.48-.23Z"/><path class="cls-2" d="M52.55,55.24c-.75.42-1.23,1.38-.49,2.07a1.53,1.53,0,0,0,2.08.06,1.89,1.89,0,0,0,.31-2,1.15,1.15,0,0,0-2.06-.06c0,.12-.09.3.07.36a.5.5,0,0,0,.38,0,.84.84,0,0,1,.69.19.94.94,0,0,1,.23.83c0,.39-.15.26-.5.16s-1.16-.64-.62-1.09a.58.58,0,0,0,.25-.41c0-.18-.21-.2-.34-.13Z"/><path class="cls-2" d="M70.36,56A19.59,19.59,0,0,1,72.26,54a12.6,12.6,0,0,1,1.48-1.67h-.53a12,12,0,0,1,.94,4.57l.69-.49a11.24,11.24,0,0,1-1.19-1.2,10.64,10.64,0,0,0-1.45-.86A18.8,18.8,0,0,1,70.84,53c-.3-.25-.7-.22-.93-.57l-.44.74c1-.27,2.43.2,3.51.25s2.22.29,3.34.35c0-.18-.07-.36-.1-.55-.3.36-.91.44-1.34.58-.63.21-1.24.5-1.88.72a14.77,14.77,0,0,0-3,1c-.35.21-.4,1,.12.68a8,8,0,0,1,2.2-.69,14.6,14.6,0,0,0,2.2-.83,5.16,5.16,0,0,0,2.29-1.23c.14-.18.2-.54-.11-.55-1.13-.07-2.22-.32-3.35-.34s-2.53-.49-3.73-.18c-.27.07-.64.45-.44.73a1.52,1.52,0,0,0,.82.5c.57.23,1,1,1.51,1.35s1,.52,1.47.84.74.86,1.18,1.2.66-.23.69-.5A10,10,0,0,0,74,51.69c-.1-.23-.38-.12-.53,0a11.09,11.09,0,0,0-1.69,1.86,26,26,0,0,0-2,2.31c-.35.49.27.56.55.2Z"/><path class="cls-2" d="M27.77,74.41c.26-.79.54-1.57.86-2.33A8.94,8.94,0,0,1,29.8,69.7l-.64,0a30.46,30.46,0,0,0,1.53,5.24l.46-.53c-.34,0-.41-.4-.56-.62a7.15,7.15,0,0,0-1.36-1.44c-.83-.67-1.9-.88-2.73-1.55l-.48.67c1.94.22,3.89.29,5.83.47,0-.19,0-.39,0-.59a4,4,0,0,1-.87.52c-.6.36-1.19.74-1.8,1.09s-1.34.8-2,1.21c-.23.14-.48.81,0,.68l.15,0c.35-.09.76-.91.2-.77l-.15,0c0,.23,0,.45,0,.68l2.28-1.37a12.5,12.5,0,0,0,2.58-1.63c.15-.15.34-.55,0-.59-2-.18-3.91-.22-5.87-.41-.23,0-.74.45-.48.67.91.77,2.07,1.1,3,1.84a6.08,6.08,0,0,1,1.21,1.27c.21.31.36.54.75.51.19,0,.5-.24.46-.47a18.9,18.9,0,0,0-.5-2.23,12.88,12.88,0,0,1-.81-3c0-.37-.49-.17-.63,0-1.23,1.3-1.84,3.56-2.15,5.28-.08.42.48.09.55-.14Z"/><path class="cls-2" d="M24.25,30.57c.41-.62.85-1.23,1.29-1.83a14.53,14.53,0,0,1,1.49-2l-.54.07a18.46,18.46,0,0,1,.67,2.42c.08.36.37,1.14.16,1.48l.58-.22a13,13,0,0,1-1.17-1.63c-.54-.67-1.33-1-1.71-1.83l-.57.67a7.46,7.46,0,0,1,2.3.35,7.62,7.62,0,0,0,2.18.16l.18-.73c-1.17.56-2.28,1.18-3.48,1.68a3.74,3.74,0,0,0-1.54.87c-.38.51.32.64.58.21-.13.22.3-.1.45-.17.32-.13.64-.27,1-.38a30.69,30.69,0,0,0,3-1.53c.18-.08.66-.75.18-.73-1.53.07-3-.63-4.47-.52-.25,0-.71.36-.57.66a4.28,4.28,0,0,0,1.38,1.52c.72.57,1,1.44,1.63,2,.18.16.49-.06.58-.22A1.94,1.94,0,0,0,28,29.43a19.87,19.87,0,0,0-.81-3.12c-.1-.25-.43,0-.55.07A11.56,11.56,0,0,0,25.46,28c-.59.8-1.15,1.61-1.69,2.44-.29.45.25.52.48.18Z"/><path class="cls-2" d="M62.37,4.07C61.21,6.51,60,8.93,58.81,11.35L57,15.07a7,7,0,0,1-2.4,2.83c-.11.07-.4.56-.07.52a7.91,7.91,0,0,1,3.75.8A39.79,39.79,0,0,1,62,20.89c1.27.66,2.45,1.39,3.66,2.14a1.75,1.75,0,0,0,2.18,0,5.39,5.39,0,0,0,1.33-2.23,18,18,0,0,1,2.36-4.38,33.84,33.84,0,0,0,3.19-5.41c.22-.44-.39-.29-.53,0A32.41,32.41,0,0,1,71.35,16a20,20,0,0,0-1.93,3c-.49,1-.82,2.08-1.32,3.08-.87,1.77-2.57-.16-3.6-.67-1.25-.63-2.47-1.3-3.73-1.89-1.8-.86-4-1.93-6.07-1.63,0,.17,0,.35,0,.52a9.33,9.33,0,0,0,1.14-.69,9.91,9.91,0,0,0,.88-1.51,31.29,31.29,0,0,0,2-3.51C60.18,9.8,61.54,7,62.87,4.07c.19-.41-.37-.27-.5,0Z"/><path class="cls-2" d="M62.6,3.71c1.67.08,3.36,1.06,4.9,1.63a20.64,20.64,0,0,1,5,2.67c.31.21.89-.42.62-.61A21.54,21.54,0,0,0,68.4,4.83c-1.71-.65-3.71-1.76-5.57-1.59-.19,0-.54.45-.23.47Z"/><path class="cls-2" d="M73,8,73,7.86,72.52,8a11.29,11.29,0,0,0,.79,2,3.24,3.24,0,0,0,1.08,1.32c.26.14.75-.43.44-.62-1.08-.68-1-2.27-1.76-3.19-.22-.28-.8.46-.47.55l.07,0A.31.31,0,0,0,73,8Z"/><path class="cls-2" d="M72.52,7.74a4.74,4.74,0,0,1-.67,1,15.2,15.2,0,0,0-.8,1.42c0,.11-.08.31.07.35.95.29,1.75.94,2.69,1.26.31.1.86-.55.49-.69-.92-.36-1.75-.95-2.69-1.26,0,.12,0,.24.07.35a16.2,16.2,0,0,1,.92-1.55,2.2,2.2,0,0,0,.46-1c0-.34-.48,0-.54.13Z"/><path class="cls-2" d="M61.84,11.56c1.07.66,2,1.49,3.16,2,.88.43,1.65,1.25,2.69.9.09,0,.34-.33.12-.33-1.1,0-1.79-.77-2.71-1.24s-1.93-1.26-2.93-1.83c-.19-.12-.56.32-.33.46Z"/><path class="cls-2" d="M60.73,13.48c1.91,1.12,4,2.85,6.19,3.29.21,0,.62-.36.35-.49-2.11-1-4.12-2.18-6.16-3.32-.22-.13-.64.37-.38.52Z"/><path class="cls-2" d="M59.24,15.79c2,1,4.08,1.9,6,3,.24.14.64-.34.47-.55a7.09,7.09,0,0,0-2.54-1.37c-1.18-.56-2.38-1.08-3.55-1.65-.23-.12-.67.4-.39.55Z"/><path class="cls-2" d="M62.6,10.09a9.43,9.43,0,0,0,2.71-1.71l-.55.06A4.48,4.48,0,0,1,65,9.89c0,.53.15,1,.22,1.54a.2.2,0,0,0,.11.18c.66.2.62-.8.53-1.14a16.6,16.6,0,0,0-.41-2.54c-.1-.24-.44-.07-.55.06a10.22,10.22,0,0,1-2.41,1.63c-.24.15-.3.69.08.47Z"/><path class="cls-2" d="M63.72,9.64a5.24,5.24,0,0,1,.85.27c.29.12.34.25.65.19a.38.38,0,0,0,.29-.34s0-.09,0-.14a.21.21,0,0,0,0-.13A3.7,3.7,0,0,0,64.15,9c-.28-.06-.76.53-.43.61Z"/><path class="cls-2" d="M79.57,45.35c1.75.09,3.49.25,5.25.29a40.33,40.33,0,0,0,4.26-.1c1-.08,2,.43,3,0,.34-.14.68-1,.11-.85-1,.34-2.07-.14-3.07-.06-1.42.11-2.83.1-4.26.07-1.65,0-3.31-.13-5-.07-.3,0-.8.68-.34.71Z"/><path class="cls-2" d="M80,44.8c-.43-1.4-.74-3.08,1-3.61a2.29,2.29,0,0,1,3,2c.06.5.71-.08.74-.36C85,40.6,82.31,40,80.66,40.63a3,3,0,0,0-1.16,4.6c.17.21.56-.23.5-.43Z"/><path class="cls-2" d="M83.72,40.94a1.6,1.6,0,0,1,2-1.71,1.76,1.76,0,0,1,1,.84c.23.37.1.73.13,1.12s.44.07.55-.06c1-1.23-.53-2.75-1.8-2.75s-3,1.5-2.44,2.9c.12.29.57-.14.56-.34Z"/><path class="cls-2" d="M87,42.31a2.65,2.65,0,0,1,.46-1.11c.25-.28.72-.11,1,.07.53.35,1,.9.92,1.54,0,.25.15.3.35.23a1,1,0,0,0,.46-1.32,3,3,0,0,0-1.26-1.31,1.56,1.56,0,0,0-1.72.34,2.71,2.71,0,0,0-.69,1.74c0,.31.46,0,.51-.18Z"/><path class="cls-2" d="M87,39.35a3.14,3.14,0,0,1,4.77-.27c1.34,1.24,2.14,4.73.12,5.78-.39.2-.64,1,0,.76,2.58-1.15,2.41-4.75,1.09-6.77-1.49-2.26-5.24-2.24-6.36.36-.13.3.21.33.37.14Z"/><path class="cls-2" d="M67.11,37.43c1.56-.07,3.1-.17,4.66-.12a19.56,19.56,0,0,0,4-.11c.15,0,.55-.48.26-.54a18.28,18.28,0,0,0-3.55-.09c-1.72,0-3.39.08-5.1.19-.29,0-.73.68-.32.67Z"/><path class="cls-2" d="M67.59,36.84a2.51,2.51,0,0,1-.51-1.05,1.55,1.55,0,0,1,1-2c1.49-.69,2.36.68,2.78,1.87.11.33.63-.12.65-.32a2.26,2.26,0,0,0-1.26-2.22,2.83,2.83,0,0,0-2.59.23,2.53,2.53,0,0,0-1.36,1.76c-.06.66.1,2,.92,2.17.19,0,.59-.27.4-.46Z"/><path class="cls-2" d="M70.81,33.7a2.32,2.32,0,0,1,2-2,3.78,3.78,0,0,1,3.23.39c1.24.81,1.68,3.76.08,4.37-.41.16-.58,1,0,.73a2.62,2.62,0,0,0,1.78-2.33,3.69,3.69,0,0,0-1.48-3.63c-1.29-.85-2.91-.47-4.26,0a2.84,2.84,0,0,0-1.89,2.66c0,.34.53,0,.57-.21Z"/><path class="cls-2" d="M83.08,11.13a37.2,37.2,0,0,1,4.48,0c0-.19-.07-.38-.11-.56a14.64,14.64,0,0,0-1.73,4c-.29.92-.58,1.68.66,1.69.45,0,.9-.06,1.35-.08.07,0-.9,1.72-.92,1.75-.53.93-1.06,1.85-1.52,2.81-.2.4-.41.78-.61,1.17s-.27,1-.58,1.31l.72,0A9.21,9.21,0,0,1,85.19,21c.13-.74.21-1.47.41-2.2S86,17.14,85.12,17c-.54-.11-1.07,0-1.61-.16-.31-.08.16-1.5.18-1.67.14-1.53-.12-3,0-4.57.06-.56-.91,0-1,.45-.13,1.43.06,2.76,0,4.17,0,.39-.86,2.11-.17,2.41a3.32,3.32,0,0,0,1.36.25,2.84,2.84,0,0,1,.71.06c.38.07,0,1.35-.1,1.56-.19.73-.23,1.48-.36,2.23a8.48,8.48,0,0,0-.35,2c0,.44.54.18.72,0a2.18,2.18,0,0,0,.69-1.19,15,15,0,0,1,1.47-3,28.18,28.18,0,0,1,1.52-2.61,2.2,2.2,0,0,0,.55-1.22c0-.81-1.53-.4-2-.37-.85.07-.18-1.1,0-1.54a11.11,11.11,0,0,1,1.31-3c.12-.16.23-.57-.1-.56a45.31,45.31,0,0,0-4.66.24c-.26,0-.65.71-.25.68Z"/><path class="cls-2" d="M89.77,8.58a31.49,31.49,0,0,1,3.7.86c0-.22,0-.44.07-.65A15,15,0,0,0,91.17,12c-.46.7-.64,1.35.38,1.53a7.18,7.18,0,0,0,1.15.17c-.45.5-1,1-1.44,1.45s-1.14,1.3-1.71,2l-.59.7c-.17.19-.36.74-.6.87l.47.3a4.44,4.44,0,0,1,.59-1.4c.29-.58.44-1.23.74-1.81s.89-1.39.39-2c-.25-.29-.94-.34-1.28-.45-.67-.2,0-1,.19-1.39.49-1.23.5-2.6.93-3.86.22-.63-.78-.17-.91.23-.45,1.31-.49,2.72-1,4-.25.61-1,1.15-.28,1.72a3.14,3.14,0,0,0,1.19.42c.76.19,0,1.26-.22,1.64-.29.57-.43,1.2-.73,1.77a4.19,4.19,0,0,0-.54,1.34c0,.3.19.44.46.3a1.83,1.83,0,0,0,.84-.76,12.9,12.9,0,0,1,1.65-2.11c.85-1,2.17-1.9,2.77-3.07.41-.8-.78-.81-1.24-.89-.79-.12-.56-.4-.24-1A10.63,10.63,0,0,1,94,9.24c.11-.1.39-.59.08-.65a38.54,38.54,0,0,0-4-.7c-.31,0-.77.62-.33.69Z"/><path class="cls-2" d="M84.54,59.27A8.45,8.45,0,0,1,86,57.56a3.11,3.11,0,0,1,2.85-.07c1.84.72,1,3.55-.19,4.35A10.37,10.37,0,0,0,86,64a7.62,7.62,0,0,0-1.27,3.07c-.1.53.56.14.69-.09.49-.88.7-1.87,1.26-2.73s1.87-1.27,2.72-2a4.07,4.07,0,0,0,1.42-3.8c-.39-1.62-1.72-2.07-3.26-2S84.9,57.9,84.1,59.11c-.28.41.22.47.44.16Z"/><path class="cls-2" d="M84,59.38c0,.52.59.79.79,1.22.13.27.51.08.65-.08.47-.5,2.4-2.54,2.6-.83.09.78-1.84,1.38-2.29,1.89a4.44,4.44,0,0,0-1,1.68c-.37,1.11-.68,2.2-1.14,3.28-.06.14-.1.35.08.42a4.78,4.78,0,0,0,.76.23c.48.12,1.15-.83.54-.92l-.72-.13c0,.14,0,.28.08.41.29-.67.67-1.33.9-2,.35-1,.44-2.2,1.5-2.81s1.88-1,2.17-2.12a1.16,1.16,0,0,0-1.27-1.51,5.12,5.12,0,0,0-2.8,2.09l.74-.18c-.27-.45-.8-.63-1.08-1-.17-.23-.56.23-.56.4Z"/><path class="cls-2" d="M83.33,67.51A6,6,0,0,0,82.7,69a.23.23,0,0,0,.11.28,6.52,6.52,0,0,1,1.13.54.7.7,0,0,0,.79-.18c.47-.41.41-1.22.61-1.76,0-.11.09-.27-.06-.33A4.65,4.65,0,0,0,84,67.21c-.34,0-.85.69-.36.77a7.61,7.61,0,0,1,1.15.25l-.1-.25c-.11.37-.18.74-.31,1.1s0-.06.09,0a2.27,2.27,0,0,1-.34-.19,4.77,4.77,0,0,0-.82-.31c0,.12,0,.24.07.36a4.64,4.64,0,0,0,.48-1.49c0-.35-.47-.06-.55.07Z"/><path class="cls-2" d="M91.32,57.71a7.67,7.67,0,0,1,1.53-1.25,2.82,2.82,0,0,1,2.71.36c1.5,1,.39,3.22-.86,3.76A9.12,9.12,0,0,0,92,62.07a7,7,0,0,0-1.66,2.62c-.2.52.38.36.59.1.58-.7.92-1.56,1.55-2.23s1.89-.85,2.77-1.39a4,4,0,0,0,2-3.35,2.45,2.45,0,0,0-2.31-2.32c-1.68-.27-2.77.75-3.85,1.89-.32.33,0,.64.32.32Z"/><path class="cls-2" d="M90.8,57.73c0,.48.41.84.54,1.27.07.24.41.11.54,0,.39-.29.77-.58,1.18-.83,1.41-.83,1.69.64.51,1a5.68,5.68,0,0,0-1.75.85,4.15,4.15,0,0,0-1,1.51A18.75,18.75,0,0,1,89.39,64c-.11.16-.19.39,0,.52a3.61,3.61,0,0,0,.65.33c.42.19,1.11-.74.65-.9a7.61,7.61,0,0,1-.72-.25c0,.18,0,.35,0,.52.35-.53.72-1.05,1.08-1.58.48-.72.6-1.75,1.44-2.21s2.15-.51,2.63-1.56c.31-.69.33-1.42-.39-1.83-1-.55-2.48.76-3.11,1.3h.54c-.18-.42-.58-.65-.8-1s-.57.14-.59.35Z"/><path class="cls-2" d="M89,64.86a5.43,5.43,0,0,0-.82,1.29.26.26,0,0,0,.07.37c.38.2.66.5,1,.72a.63.63,0,0,0,.69-.19,7,7,0,0,0,.8-1.51.24.24,0,0,0-.06-.34,3.87,3.87,0,0,0-1-.5c-.33-.1-.92.59-.53.74a9.9,9.9,0,0,1,1.07.42l-.06-.33c-.16.32-.29.64-.46,1l-.09.13c.21-.24.14-.18-.06-.36a4.1,4.1,0,0,0-.78-.46c0,.15,0,.31,0,.46a4.36,4.36,0,0,0,.7-1.31c.08-.34-.34-.23-.48-.08Z"/></pattern></defs><rect class="cls-3" width="166.22" height="500"/><rect class="cls-3" x="166.89" width="166.22" height="500"/><rect class="cls-3" x="333.11" width="166.22" height="500"/></svg>